<?xml version="1.0" standalone="no"?>
<!DOCTYPE svg PUBLIC "-//W3C//DTD SVG 20010904//EN"
 "http://www.w3.org/TR/2001/REC-SVG-20010904/DTD/svg10.dtd">
<svg version="1.0" xmlns="http://www.w3.org/2000/svg"
 width="512" height="512" viewBox="0 0 512 512"
 preserveAspectRatio="xMidYMid meet">
<metadata>
Created by potrace 1.16, written by Peter Selinger 2001-2019
</metadata>
<g transform="translate(0.000000,512.000000) scale(0.100000,-0.100000)"
fill="#ffffff" stroke="none">
<path d="M2580 5058 c-109 -51 -166 -81 -185 -98 -11 -9 -56 -42 -101 -71 -45
-30 -112 -81 -150 -114 -124 -107 -278 -268 -370 -388 -51 -65 -98 -131 -105
-145 -7 -15 -29 -52 -49 -82 -36 -56 -68 -120 -87 -175 -14 -38 -71 -171 -90
-207 -19 -37 -43 -118 -43 -146 0 -13 -9 -51 -19 -85 -22 -70 -56 -346 -56
-452 0 -38 6 -147 14 -240 8 -94 11 -188 7 -208 -4 -21 -13 -40 -21 -43 -7 -3
-27 2 -44 10 -46 24 -233 214 -277 281 -22 33 -51 82 -64 108 -13 27 -35 57
-48 68 -14 10 -40 19 -58 19 -28 0 -38 -6 -54 -32 -11 -18 -56 -103 -99 -188
-43 -85 -84 -180 -91 -210 -7 -30 -23 -80 -36 -111 -13 -31 -27 -72 -30 -90
-4 -19 -18 -68 -31 -109 -14 -41 -29 -118 -34 -170 -5 -52 -14 -120 -20 -150
-17 -86 -23 -505 -9 -680 11 -142 18 -189 41 -245 13 -33 27 -87 39 -150 17
-84 29 -120 74 -215 58 -124 135 -237 208 -307 60 -57 315 -230 418 -283 36
-19 76 -41 90 -50 45 -29 132 -60 169 -60 20 1 46 6 58 13 12 7 39 28 60 47
21 19 56 48 78 65 67 50 110 100 123 142 7 22 12 56 12 74 0 19 7 68 16 109 9
41 19 106 21 144 4 59 1 76 -23 130 -21 45 -29 84 -34 151 -7 93 -24 150 -54
174 -9 7 -37 18 -63 22 -25 5 -53 15 -61 21 -8 7 -29 44 -47 83 -31 68 -41
102 -66 230 -6 33 -16 73 -21 88 -6 15 -11 51 -11 80 0 54 23 135 50 176 8 13
38 45 66 71 l51 47 7 199 c4 109 12 212 18 227 6 16 11 43 11 61 0 18 5 48 11
67 27 82 83 183 132 236 75 83 135 139 166 154 14 7 44 25 66 40 22 14 58 32
80 39 22 7 49 16 60 21 67 26 105 29 354 29 l266 0 80 -31 c44 -17 91 -36 105
-42 56 -25 139 -89 206 -159 40 -40 92 -100 116 -134 24 -33 51 -81 60 -105
16 -45 29 -105 47 -220 6 -37 11 -139 11 -227 l0 -161 37 -28 c21 -15 56 -46
78 -69 31 -30 44 -54 54 -95 8 -33 12 -91 9 -144 -3 -67 -10 -103 -27 -140
-13 -27 -26 -68 -29 -90 -2 -22 -18 -69 -33 -104 -16 -35 -29 -70 -29 -78 0
-19 -60 -53 -95 -53 -30 -1 -49 -11 -72 -40 -7 -9 -17 -67 -24 -130 -8 -76
-19 -130 -33 -160 -19 -40 -21 -61 -19 -185 0 -76 7 -166 14 -200 6 -33 20
-76 30 -95 10 -19 28 -46 41 -60 27 -30 163 -139 196 -157 12 -7 35 -13 50
-13 30 0 87 24 98 41 3 5 32 23 63 39 93 46 288 199 392 306 53 55 120 131
150 170 30 39 69 88 86 110 47 57 107 141 146 204 35 57 117 256 117 284 0 8
12 41 26 73 27 58 29 70 51 357 5 72 1 112 -27 271 -5 28 -14 79 -20 115 -6
36 -21 97 -33 135 -23 76 -120 272 -170 345 -17 25 -83 97 -147 160 -88 88
-146 135 -245 199 -197 128 -227 146 -265 161 -19 7 -53 26 -75 40 -22 15 -83
51 -135 80 -116 66 -361 228 -415 276 -22 19 -58 49 -80 66 -22 18 -89 84
-148 147 -67 72 -140 165 -192 244 -47 71 -85 134 -85 141 0 7 -6 26 -14 42
-32 67 -45 102 -57 154 -6 30 -21 81 -31 113 -16 47 -19 77 -15 155 3 53 14
139 25 189 14 65 36 126 76 204 56 111 68 163 44 187 -7 7 -23 12 -37 12 -15
-1 -46 -10 -71 -22z"/>
</g>
</svg>
