<?xml version="1.0" standalone="no"?>
<!DOCTYPE svg PUBLIC "-//W3C//DTD SVG 20010904//EN"
 "http://www.w3.org/TR/2001/REC-SVG-20010904/DTD/svg10.dtd">
<svg version="1.0" xmlns="http://www.w3.org/2000/svg"
 width="512" height="512" viewBox="0 0 512 512"
 preserveAspectRatio="xMidYMid meet">
<metadata>
Created by potrace 1.16, written by Peter Selinger 2001-2019
</metadata>
<g transform="translate(0.000000,512.000000) scale(0.100000,-0.100000)"
fill="#ffffff" stroke="none">
<path d="M725 4359 c-291 -5 -336 -8 -380 -25 -54 -21 -122 -65 -172 -111 -31
-29 -54 -64 -102 -158 l-26 -50 0 -1450 c0 -1404 1 -1451 19 -1485 10 -19 22
-42 26 -50 21 -44 41 -71 95 -125 38 -39 83 -71 125 -91 62 -29 76 -31 280
-45 131 -8 311 -12 460 -10 135 2 288 3 340 3 52 -1 453 -2 890 -3 730 -2 798
-1 828 15 l32 17 0 807 c0 794 0 809 -20 830 -11 11 -37 24 -57 28 -21 4 -42
10 -48 14 -5 4 -46 26 -89 49 -44 23 -107 65 -140 94 -34 28 -64 57 -69 64 -4
6 -27 35 -51 63 -25 29 -63 89 -85 134 -22 44 -45 104 -51 133 -6 28 -21 60
-32 70 -19 17 -49 18 -429 21 -269 2 -423 -1 -449 -8 l-40 -11 0 -464 0 -464
33 -15 c18 -8 73 -16 127 -18 52 -2 105 -10 118 -16 19 -11 22 -20 22 -80 -1
-72 -29 -173 -58 -205 -9 -11 -43 -32 -74 -48 -53 -27 -65 -29 -172 -29 -98 0
-121 3 -153 21 -21 11 -53 35 -71 52 -19 18 -42 50 -53 71 -18 38 -19 69 -19
678 0 396 4 645 10 656 5 9 16 33 24 53 7 20 29 48 47 62 19 14 56 32 82 41
40 13 127 17 545 22 408 6 500 9 513 21 9 8 22 35 29 61 8 26 19 56 27 67 7
11 13 26 13 35 0 25 108 180 168 243 31 31 60 57 65 57 5 0 28 14 52 30 24 17
50 30 57 30 7 0 24 9 38 20 14 11 32 20 41 20 8 0 19 4 25 9 5 5 27 14 49 21
22 7 50 22 62 33 37 33 44 74 35 181 -7 74 -14 102 -28 116 -18 18 -67 19
-1049 22 -566 2 -1178 0 -1360 -3z"/>
<path d="M3513 4353 c-23 -2 -47 -10 -53 -18 -8 -10 -11 -54 -8 -139 3 -114 5
-126 26 -149 13 -14 45 -30 70 -37 26 -6 91 -35 146 -63 79 -42 116 -70 190
-142 50 -49 98 -103 106 -120 8 -16 27 -52 42 -78 16 -26 28 -53 28 -59 0 -5
14 -39 31 -74 20 -43 40 -69 59 -79 17 -9 56 -15 92 -15 118 0 413 23 426 33
11 9 13 82 10 391 l-3 381 -25 45 c-16 29 -47 59 -84 85 l-58 40 -476 1 c-263
1 -496 -1 -519 -3z"/>
<path d="M3100 3716 c-55 -21 -112 -55 -149 -89 -37 -35 -151 -202 -151 -222
0 -17 33 -45 54 -45 9 0 25 -4 35 -10 10 -5 49 -14 87 -20 38 -6 81 -16 97
-23 25 -11 27 -16 27 -74 l0 -62 -37 -6 c-21 -3 -54 -10 -73 -15 -19 -5 -57
-14 -85 -21 -51 -12 -105 -43 -105 -59 0 -5 17 -37 37 -72 42 -72 128 -166
190 -210 27 -18 61 -31 91 -35 45 -5 50 -3 66 23 10 15 22 59 27 98 4 39 8 78
9 87 0 9 13 31 29 48 22 23 38 31 64 31 19 0 40 -7 48 -16 20 -25 49 -115 49
-155 0 -62 11 -98 37 -114 21 -14 31 -15 76 -3 43 11 66 27 140 97 87 83 161
188 155 219 -2 9 -17 24 -33 33 -17 10 -70 25 -119 33 -48 9 -100 22 -115 29
-24 11 -26 17 -26 71 l0 58 40 13 c22 7 65 18 95 25 61 13 129 37 146 51 9 7
6 25 -10 67 -17 45 -40 76 -113 150 -86 87 -152 131 -195 132 -9 0 -28 -10
-43 -22 -20 -19 -27 -36 -34 -94 -5 -39 -14 -89 -21 -110 -7 -22 -14 -45 -16
-51 -2 -9 -23 -13 -58 -13 -48 0 -57 3 -74 28 -11 16 -22 53 -26 92 -4 36 -9
79 -12 97 -6 34 -37 73 -57 72 -7 0 -28 -6 -47 -13z"/>
<path d="M4138 3083 c-18 -21 -48 -86 -48 -103 0 -11 -11 -35 -46 -100 -8 -14
-24 -45 -36 -70 -26 -51 -197 -228 -243 -252 -16 -8 -57 -29 -90 -46 -33 -17
-89 -40 -125 -52 -36 -12 -75 -33 -88 -47 l-23 -26 3 -726 c3 -533 7 -733 15
-753 16 -36 111 -128 132 -128 9 0 22 -5 29 -12 9 -9 185 -13 716 -16 700 -3
705 -3 725 17 21 21 21 30 21 474 0 248 -4 457 -8 464 -14 22 -63 33 -145 33
-76 1 -86 3 -129 33 -25 18 -56 45 -68 60 -12 16 -27 45 -33 65 -7 23 -13 250
-16 605 -6 548 -7 569 -25 583 -16 11 -69 14 -261 14 -218 0 -243 -2 -257 -17z"/>
</g>
</svg>
