<?xml version="1.0" standalone="no"?>
<!DOCTYPE svg PUBLIC "-//W3C//DTD SVG 20010904//EN"
 "http://www.w3.org/TR/2001/REC-SVG-20010904/DTD/svg10.dtd">
<svg version="1.0" xmlns="http://www.w3.org/2000/svg"
 width="512" height="512" viewBox="0 0 512 512"
 preserveAspectRatio="xMidYMid meet">
<metadata>
Created by potrace 1.16, written by Peter Selinger 2001-2019
</metadata>
<g transform="translate(0.000000,512.000000) scale(0.100000,-0.100000)"
fill="#ffffff" stroke="none">
<path d="M252 4283 c-164 -3 -204 -6 -208 -18 -6 -15 40 -87 75 -119 11 -11
21 -24 21 -29 0 -6 22 -36 48 -66 27 -31 59 -72 73 -91 13 -19 38 -52 56 -72
17 -20 40 -52 49 -70 9 -18 22 -36 28 -40 8 -5 12 -337 14 -1190 2 -844 0
-1194 -8 -1221 -6 -21 -26 -55 -43 -75 -18 -20 -44 -53 -59 -72 -14 -19 -38
-48 -53 -65 -14 -16 -41 -52 -60 -80 -18 -27 -44 -61 -57 -75 -41 -43 -87
-116 -80 -127 4 -6 30 -14 57 -18 28 -4 351 -9 719 -11 691 -5 685 -5 686 33
0 11 -65 101 -119 163 -17 19 -31 40 -31 46 0 6 -7 18 -16 25 -9 7 -40 45 -69
84 -29 38 -62 79 -73 91 -11 11 -24 30 -31 41 -6 13 -11 74 -11 152 0 112 -3
138 -21 175 -11 24 -35 61 -53 82 -18 22 -45 59 -60 84 -15 25 -31 52 -36 60
-9 13 -30 60 -84 182 -9 20 -16 39 -16 43 0 4 -6 21 -14 38 -8 18 -16 48 -19
67 -2 19 -12 70 -22 114 -14 65 -16 115 -13 290 5 205 6 214 37 311 18 55 38
114 45 130 38 93 119 240 176 319 l64 91 1 140 c0 134 1 142 28 191 15 27 42
66 58 85 17 18 42 52 57 74 14 22 42 58 62 81 34 39 109 141 143 194 9 14 13
30 9 36 -5 8 -158 13 -527 16 -286 3 -611 3 -723 1z"/>
<path d="M2276 4258 c-9 -12 -16 -34 -16 -49 0 -15 -7 -40 -15 -55 -8 -16 -15
-39 -15 -51 0 -12 -5 -34 -11 -50 -6 -15 -15 -44 -19 -63 -16 -68 -48 -185
-58 -211 -6 -15 -18 -29 -27 -33 -9 -3 -30 -6 -46 -6 -16 0 -50 -5 -76 -11
-68 -15 -185 -49 -205 -60 -10 -5 -24 -9 -33 -9 -16 0 -110 -48 -171 -88 -23
-15 -61 -40 -85 -56 -24 -16 -96 -81 -159 -145 -79 -81 -126 -137 -149 -182
-94 -176 -121 -236 -121 -269 0 -20 -6 -44 -14 -55 -13 -20 -20 -47 -36 -145
-12 -77 -12 -233 1 -310 20 -122 27 -155 38 -187 28 -82 33 -100 38 -123 3
-14 14 -37 24 -52 11 -14 19 -29 19 -33 0 -3 14 -26 30 -50 17 -24 30 -48 30
-54 0 -6 4 -11 8 -11 5 0 15 -15 24 -32 22 -45 183 -215 222 -234 17 -9 43
-28 59 -42 23 -22 27 -34 27 -76 -1 -28 -7 -62 -15 -76 -8 -14 -14 -46 -15
-71 0 -25 -7 -54 -15 -65 -8 -10 -15 -31 -15 -46 0 -15 10 -42 22 -60 30 -43
81 -112 89 -118 3 -3 25 -30 48 -60 23 -30 57 -74 74 -96 18 -23 47 -52 66
-65 34 -24 39 -24 315 -27 155 -2 323 -1 374 3 77 6 94 10 103 27 8 15 6 27
-9 52 -11 18 -31 46 -45 62 -30 34 -103 129 -149 194 -17 25 -46 62 -64 82
-35 40 -52 84 -38 98 5 4 54 18 109 30 126 27 169 39 225 63 51 22 93 40 148
63 59 25 76 35 154 94 78 59 238 217 238 235 0 6 18 28 40 50 29 28 43 36 52
28 7 -6 33 -13 58 -17 47 -7 84 -17 215 -61 44 -15 105 -31 135 -35 99 -15
174 -40 198 -66 15 -17 22 -38 22 -65 0 -21 4 -47 9 -57 26 -49 51 -129 51
-163 0 -21 5 -41 10 -44 16 -10 10 -77 -8 -107 -9 -14 -44 -61 -77 -103 -33
-42 -70 -90 -83 -108 -13 -18 -31 -41 -40 -52 -37 -44 -78 -101 -92 -128 -10
-21 -11 -33 -3 -45 9 -16 63 -17 659 -20 653 -3 779 3 790 33 4 10 -85 129
-221 297 -7 9 -19 26 -25 38 -7 13 -22 34 -35 49 -88 101 -115 138 -115 158 0
13 -9 41 -20 63 -11 22 -20 57 -20 79 0 22 -4 42 -9 45 -4 3 -11 28 -15 55 -4
27 -18 80 -31 118 -14 37 -25 78 -25 91 0 12 -9 41 -19 65 -11 23 -22 60 -25
82 -6 48 -39 172 -49 181 -4 4 -7 21 -7 38 -1 17 -14 69 -30 116 -17 47 -30
97 -30 112 0 14 -9 47 -20 73 -11 26 -20 63 -20 84 0 20 -4 41 -9 46 -9 9 -28
71 -51 165 -24 96 -43 156 -51 165 -5 5 -9 28 -9 51 0 23 -9 63 -20 89 -11 26
-20 64 -20 85 0 21 -4 42 -10 45 -5 3 -10 17 -10 30 0 14 -9 48 -20 77 -11 29
-20 60 -20 69 0 9 -12 50 -26 90 -14 41 -29 97 -34 124 -11 60 -39 172 -50
200 -5 11 -11 31 -14 45 -7 35 -41 162 -48 180 -4 8 -17 56 -31 105 l-25 90
-810 3 -811 2 -15 -22z m951 -574 l92 -6 15 -33 c9 -18 19 -48 22 -67 3 -18
10 -42 14 -53 5 -11 14 -47 20 -80 5 -32 15 -64 20 -69 6 -6 10 -21 10 -34 0
-13 6 -45 14 -71 8 -25 21 -71 30 -101 8 -30 21 -80 30 -110 8 -30 18 -74 21
-97 4 -24 11 -45 16 -49 5 -3 9 -23 9 -44 0 -22 8 -59 19 -82 30 -69 41 -111
41 -162 l0 -49 -52 7 c-29 4 -66 14 -82 22 -16 8 -37 14 -46 14 -31 0 -60 86
-60 175 0 36 -6 75 -15 91 -8 16 -15 37 -15 47 0 28 -80 182 -145 282 -33 51
-102 133 -156 188 -54 53 -103 97 -110 97 -7 0 -23 10 -36 22 -18 17 -23 32
-23 73 0 42 5 57 25 77 25 25 28 25 138 22 61 -3 153 -7 204 -10z m-1075 -109
c21 -33 41 -67 44 -75 14 -35 68 -149 97 -208 33 -67 71 -112 94 -112 7 0 57
30 111 66 129 87 165 112 177 122 27 21 102 69 119 76 29 10 104 -44 196 -141
45 -47 89 -97 98 -112 9 -14 25 -35 34 -45 10 -11 18 -25 18 -32 0 -6 12 -33
27 -60 35 -62 82 -193 93 -259 4 -27 11 -62 15 -76 8 -32 -18 -99 -39 -99 -8
0 -35 -11 -58 -23 -72 -40 -222 -120 -238 -127 -8 -4 -37 -18 -65 -31 -74 -36
-72 -54 16 -186 40 -59 77 -109 81 -111 4 -2 8 -9 8 -14 0 -6 17 -34 39 -62
21 -28 44 -61 50 -73 6 -12 11 -33 11 -46 0 -29 -60 -108 -135 -180 -27 -27
-77 -68 -110 -91 -71 -50 -174 -106 -230 -124 -37 -12 -50 -17 -107 -41 -13
-6 -62 -15 -110 -21 -68 -8 -92 -8 -107 2 -11 6 -24 21 -29 33 -47 100 -161
328 -180 357 -13 21 -33 40 -43 43 -12 4 -42 -7 -80 -30 -33 -19 -68 -42 -76
-50 -8 -8 -18 -15 -22 -15 -4 0 -19 -9 -32 -21 -13 -11 -44 -33 -69 -47 -25
-14 -47 -29 -50 -33 -3 -3 -21 -16 -40 -28 -19 -11 -49 -21 -66 -21 -21 0 -52
16 -101 53 -38 28 -80 66 -92 83 -11 16 -29 39 -38 50 -34 38 -80 99 -93 124
-7 14 -16 27 -19 30 -10 9 -51 94 -51 108 0 7 -4 20 -10 30 -16 28 -50 140
-50 164 0 13 -6 43 -13 68 -7 25 -12 53 -10 62 3 9 20 27 40 39 19 12 116 62
214 111 114 56 184 97 195 113 15 23 14 26 -15 69 -17 24 -31 48 -31 52 0 4
-8 16 -17 26 -10 11 -26 34 -38 53 -11 18 -40 62 -64 97 -24 34 -52 78 -62 96
-11 18 -19 49 -19 68 0 32 12 48 109 147 72 73 134 127 180 155 39 23 79 42
89 42 9 0 28 9 42 20 14 11 31 20 38 20 7 0 20 4 30 9 39 22 135 51 167 51 19
0 37 5 40 11 4 5 27 9 53 7 44 -3 47 -5 84 -63z"/>
<path d="M2085 3033 c-27 -9 -68 -25 -90 -36 -55 -28 -126 -77 -151 -106 -12
-13 -31 -40 -43 -61 -18 -33 -19 -39 -6 -50 8 -7 34 -15 58 -17 39 -4 46 -1
102 46 32 28 64 51 70 51 6 0 28 9 50 20 22 11 49 20 61 20 26 0 83 45 94 74
8 21 -4 55 -24 68 -17 12 -66 8 -121 -9z"/>
<path d="M2402 2957 c-12 -13 -22 -33 -22 -46 0 -12 5 -32 12 -44 6 -12 35
-48 65 -80 29 -32 53 -66 53 -75 0 -9 7 -30 15 -46 8 -15 15 -36 15 -46 0 -30
33 -60 74 -67 27 -4 41 -2 47 8 5 8 9 41 9 75 0 38 -5 67 -15 80 -8 10 -15 29
-15 42 0 29 -44 93 -101 150 -40 38 -90 72 -108 72 -4 0 -17 -10 -29 -23z"/>
<path d="M1724 2555 c-12 -19 -14 -37 -9 -77 4 -29 15 -69 25 -88 10 -19 26
-52 36 -73 24 -49 142 -164 178 -173 15 -3 32 -1 40 6 20 16 29 62 17 91 -5
13 -29 46 -53 72 -46 50 -93 133 -103 179 -3 14 -17 40 -31 57 -18 22 -35 31
-55 31 -19 0 -34 -8 -45 -25z"/>
<path d="M2500 2363 c-8 -4 -34 -25 -58 -47 -49 -46 -133 -96 -161 -96 -10 0
-31 -5 -48 -10 -19 -7 -36 -24 -46 -46 -10 -19 -17 -41 -17 -49 0 -8 9 -19 19
-25 11 -5 48 -10 83 -10 54 0 73 6 134 39 39 22 93 60 121 85 28 25 58 61 66
79 9 18 14 43 11 54 -6 21 -32 33 -69 32 -11 0 -27 -3 -35 -6z"/>
</g>
</svg>
