<?xml version="1.0" standalone="no"?>
<!DOCTYPE svg PUBLIC "-//W3C//DTD SVG 20010904//EN"
 "http://www.w3.org/TR/2001/REC-SVG-20010904/DTD/svg10.dtd">
<svg version="1.0" xmlns="http://www.w3.org/2000/svg"
 width="512" height="512" viewBox="0 0 512 512"
 preserveAspectRatio="xMidYMid meet">
<metadata>
Created by potrace 1.16, written by Peter Selinger 2001-2019
</metadata>
<g transform="translate(0.000000,512.000000) scale(0.100000,-0.100000)"
fill="#ffffff" stroke="none">
<path d="M858 4368 c-15 -30 -29 -79 -32 -113 -7 -74 13 -173 43 -210 11 -15
21 -35 21 -43 0 -25 99 -148 146 -182 24 -17 44 -35 44 -40 0 -4 35 -28 78
-53 42 -25 88 -54 102 -64 14 -11 53 -31 87 -46 42 -19 87 -29 141 -34 77 -6
79 -5 100 22 22 28 27 59 16 90 -4 10 -43 35 -87 56 -45 21 -88 39 -96 39 -9
1 -43 21 -76 45 -33 25 -73 51 -90 59 -16 8 -75 59 -131 113 -90 89 -106 110
-147 195 -25 53 -49 118 -52 144 -7 47 -20 74 -35 74 -4 0 -18 -24 -32 -52z"/>
<path d="M1733 4343 c-17 -6 -67 -82 -93 -140 -12 -26 -33 -81 -47 -122 -20
-60 -24 -83 -18 -128 4 -31 22 -85 41 -124 27 -53 47 -78 93 -112 32 -25 69
-48 82 -52 13 -4 36 -16 50 -26 14 -10 38 -21 55 -25 16 -3 40 -17 54 -29 14
-12 52 -37 85 -55 33 -17 84 -53 114 -78 29 -25 73 -76 98 -113 29 -44 56 -72
76 -81 22 -9 70 -12 147 -11 80 1 126 6 153 17 21 9 73 21 115 26 42 5 89 12
104 15 19 5 41 0 71 -14 24 -12 50 -21 58 -21 8 0 23 -14 33 -31 10 -17 28
-35 41 -41 19 -8 30 -6 59 11 19 12 47 36 61 52 20 24 25 41 25 83 0 31 -6 61
-16 74 -8 12 -40 38 -70 57 -54 35 -97 44 -109 25 -4 -6 16 -31 43 -55 27 -24
55 -58 62 -74 9 -22 9 -34 0 -50 -6 -12 -15 -21 -20 -21 -5 0 -23 20 -40 45
-17 25 -42 57 -56 72 -14 15 -29 33 -32 39 -4 6 -26 21 -50 33 -28 14 -75 25
-140 31 -158 15 -232 28 -257 44 -12 8 -54 20 -91 27 -38 6 -96 22 -129 36
-70 29 -183 85 -240 118 -49 29 -135 112 -196 191 -39 49 -48 71 -59 130 -7
40 -11 104 -8 144 3 40 1 88 -4 107 -9 32 -18 37 -45 26z"/>
<path d="M234 4005 c-4 -8 -4 -28 -1 -43 14 -71 37 -145 51 -167 9 -14 28 -38
44 -54 15 -16 43 -51 62 -76 19 -26 51 -58 72 -71 21 -13 38 -29 38 -34 0 -10
104 -80 119 -80 4 0 16 -9 25 -19 20 -22 159 -91 185 -91 9 0 27 -7 41 -15 14
-8 43 -23 65 -34 22 -11 61 -34 87 -53 26 -18 111 -93 190 -167 79 -74 160
-144 180 -157 21 -13 49 -24 62 -24 15 0 30 8 36 21 8 15 9 40 1 87 -5 37 -13
99 -16 139 -5 64 -2 82 30 179 20 59 34 113 31 121 -4 9 -28 13 -90 13 -46 0
-118 7 -161 16 -43 9 -106 31 -143 51 -37 20 -78 42 -92 50 -14 7 -30 13 -36
13 -6 0 -27 13 -47 28 -20 16 -62 37 -93 47 -49 15 -65 16 -101 7 -73 -20
-120 -15 -191 21 -36 17 -88 55 -117 82 -48 47 -128 142 -168 199 -20 29 -54
34 -63 11z"/>
<path d="M1676 3588 c-23 -32 -60 -119 -77 -183 -4 -16 -13 -48 -19 -70 -6
-22 -11 -93 -10 -158 0 -99 4 -130 25 -190 14 -39 25 -83 25 -97 0 -33 35 -80
58 -80 9 1 35 14 57 30 22 16 51 34 65 40 14 6 34 20 45 30 21 19 93 72 159
116 21 14 58 45 82 70 39 38 44 49 44 87 0 30 -7 53 -21 71 -17 22 -28 26 -70
26 -52 0 -86 -12 -106 -39 -7 -9 -13 -29 -13 -44 0 -15 7 -42 16 -58 8 -17 14
-33 11 -35 -2 -2 -24 -6 -48 -8 -24 -3 -52 -7 -61 -11 -30 -12 -56 13 -72 67
-18 66 -36 193 -36 262 0 35 5 58 15 66 22 18 72 2 117 -38 22 -20 48 -53 59
-74 12 -23 29 -40 44 -44 13 -3 29 -3 34 1 14 8 14 56 0 92 -6 15 -20 39 -32
52 -32 34 -118 97 -146 106 -14 4 -38 16 -55 26 -17 11 -39 19 -48 19 -9 0
-28 -15 -42 -32z"/>
<path d="M2325 3200 c-57 -6 -132 -37 -154 -63 -5 -7 -6 -18 -2 -25 6 -10 21
-9 71 4 48 12 69 13 87 5 13 -6 34 -11 47 -11 13 0 40 -13 61 -30 21 -16 43
-30 49 -30 12 0 90 -55 158 -112 25 -21 50 -38 55 -38 6 0 17 -7 24 -16 8 -9
46 -31 85 -49 60 -28 89 -34 177 -40 94 -6 113 -5 174 15 48 16 81 35 111 64
41 39 112 137 112 155 0 4 9 16 19 25 25 22 37 74 22 89 -6 6 -42 14 -79 18
-37 4 -83 11 -103 14 l-37 7 -36 -73 c-20 -41 -49 -84 -66 -97 -35 -27 -121
-55 -171 -54 -20 0 -57 9 -83 21 -26 11 -70 40 -99 64 -29 23 -70 55 -93 69
-22 14 -68 33 -102 42 -34 8 -80 25 -102 36 -21 11 -45 19 -52 18 -7 0 -40 -4
-73 -8z"/>
<path d="M3550 3163 c-8 -3 -32 -22 -52 -41 -37 -35 -38 -38 -38 -108 0 -57 4
-77 21 -98 11 -14 34 -33 49 -41 16 -8 45 -15 65 -15 39 0 45 9 65 86 12 49
48 87 70 74 10 -6 15 -26 15 -57 0 -34 -7 -57 -23 -81 -13 -17 -22 -40 -20
-50 2 -9 12 -18 23 -20 13 -2 37 12 64 37 l43 40 -3 86 -4 86 -46 44 c-26 24
-63 48 -85 54 -40 11 -118 13 -144 4z"/>
<path d="M2942 3116 c-6 -15 -23 -27 -41 -31 -17 -4 -34 -11 -37 -17 -8 -12
53 -67 75 -68 8 0 29 11 48 26 25 19 33 32 33 58 0 17 -5 37 -12 44 -7 7 -22
12 -33 12 -13 0 -26 -10 -33 -24z"/>
<path d="M708 3106 c-37 -13 -83 -37 -103 -53 -25 -20 -35 -36 -35 -55 0 -34
31 -54 59 -38 33 17 96 11 157 -16 59 -25 208 -116 294 -177 25 -18 70 -48
100 -66 48 -30 66 -35 135 -39 73 -4 82 -2 106 19 29 26 49 60 49 83 0 17 -14
31 -65 66 -20 14 -78 60 -129 102 -51 42 -108 84 -127 93 -19 8 -56 29 -84 45
-27 17 -61 35 -75 41 -13 5 -67 12 -120 15 -83 4 -103 2 -162 -20z"/>
<path d="M2081 2945 c-25 -14 -52 -32 -61 -40 -9 -8 -24 -15 -33 -15 -23 0
-126 -98 -203 -193 -40 -49 -64 -88 -64 -103 0 -14 -7 -39 -16 -56 -12 -24
-15 -49 -12 -100 4 -52 12 -80 34 -116 17 -26 44 -54 63 -64 18 -9 42 -26 53
-37 10 -12 45 -34 76 -50 31 -16 75 -49 98 -73 22 -23 60 -73 83 -110 23 -37
57 -78 75 -91 34 -26 130 -115 156 -143 55 -62 82 -97 123 -160 26 -39 47 -76
47 -81 0 -5 8 -18 19 -27 10 -9 21 -34 25 -54 8 -53 100 -160 198 -233 45 -32
96 -62 115 -65 19 -4 57 -4 86 -1 46 4 56 9 87 47 19 23 56 65 83 92 30 32 47
59 47 75 0 13 -11 35 -25 48 -13 14 -34 25 -47 25 -13 0 -29 -9 -36 -20 -7
-11 -23 -20 -36 -20 -16 0 -32 11 -46 31 -19 25 -21 39 -16 82 3 29 2 77 -2
107 -5 37 -12 56 -22 58 -9 1 -32 -20 -55 -49 -21 -28 -48 -54 -59 -59 -14 -5
-29 -1 -47 13 -27 19 -78 91 -99 138 -27 61 -127 199 -162 223 -12 9 -32 16
-43 16 -11 0 -45 15 -75 33 -53 32 -56 37 -86 118 -16 46 -42 102 -56 124 -15
22 -44 57 -65 77 -21 20 -59 57 -85 82 -34 33 -48 55 -53 85 -4 23 -2 55 5 73
6 18 27 45 46 60 29 22 50 28 121 33 60 5 115 3 187 -8 55 -9 119 -25 141 -37
31 -16 58 -20 129 -20 58 0 105 6 132 16 38 14 47 14 100 0 33 -9 91 -23 129
-31 39 -8 101 -25 138 -37 56 -17 82 -20 148 -15 l79 6 0 -29 c0 -16 9 -54 21
-85 17 -46 24 -55 45 -55 18 0 25 7 30 28 4 15 15 39 25 54 12 17 19 44 19 75
0 27 5 54 12 61 7 7 19 12 29 12 9 0 28 9 42 20 38 30 79 35 122 14 36 -17 38
-17 51 1 8 10 14 26 14 35 0 31 -31 59 -85 76 l-54 17 -63 -30 c-98 -48 -138
-62 -208 -73 -109 -17 -205 -12 -324 16 -61 15 -115 30 -121 34 -5 4 -28 13
-50 19 -37 11 -103 40 -180 79 -16 8 -48 24 -70 34 -22 10 -47 23 -55 28 -63
39 -108 61 -157 80 -32 11 -73 28 -92 36 -20 10 -71 18 -130 20 -88 4 -100 2
-140 -21z m234 -150 c28 -12 70 -26 95 -30 25 -4 65 -17 90 -30 25 -12 59 -29
75 -36 18 -9 31 -24 33 -37 2 -16 -2 -22 -15 -22 -10 0 -43 7 -73 15 -30 8
-70 15 -88 15 -18 0 -50 9 -72 20 -21 11 -59 21 -83 21 -24 1 -77 -6 -116 -17
-54 -13 -82 -27 -110 -54 -24 -23 -47 -60 -66 -108 -27 -70 -28 -74 -14 -119
13 -41 24 -54 83 -94 37 -26 79 -58 93 -71 13 -12 43 -60 65 -105 30 -60 39
-88 34 -107 -5 -22 -9 -24 -24 -15 -9 7 -35 34 -57 61 -22 27 -54 64 -71 81
-37 39 -179 141 -202 145 -9 2 -34 20 -54 40 -24 22 -40 49 -44 71 -8 41 16
120 58 197 16 28 53 76 83 105 30 30 76 67 102 82 46 27 52 28 138 22 63 -5
105 -14 140 -30z"/>
<path d="M880 2702 c0 -44 118 -181 197 -227 21 -13 72 -42 113 -66 l75 -43
136 -4 c126 -4 138 -3 156 15 14 14 23 41 28 88 5 54 4 70 -8 83 -14 13 -21
13 -71 -8 -49 -19 -69 -22 -164 -19 -97 4 -113 7 -148 30 -22 15 -73 41 -114
59 -41 18 -88 43 -105 55 -16 13 -45 30 -62 39 -31 16 -33 16 -33 -2z"/>
<path d="M4275 2610 c-16 -11 -37 -20 -45 -20 -23 0 -159 -85 -205 -129 -22
-21 -51 -44 -65 -53 -14 -8 -66 -53 -116 -99 -51 -46 -108 -95 -129 -109 -20
-14 -49 -35 -65 -47 -15 -13 -35 -23 -44 -23 -10 0 -31 -7 -49 -17 -45 -23
-156 -44 -270 -50 -83 -4 -106 -2 -145 15 -26 11 -64 23 -85 26 -22 4 -65 20
-97 37 -31 16 -62 29 -67 29 -6 0 -18 9 -28 20 -10 11 -27 22 -39 26 -11 4
-32 15 -45 25 -29 23 -81 26 -81 4 0 -25 55 -108 106 -160 27 -27 89 -93 137
-146 48 -53 95 -105 105 -115 9 -11 46 -44 82 -74 36 -30 67 -58 68 -63 5 -11
89 -67 142 -95 48 -25 160 -67 225 -83 22 -6 69 -8 105 -4 103 11 271 43 315
61 88 35 148 71 196 116 28 27 49 54 47 60 -3 9 -33 14 -90 16 -63 2 -88 7
-92 17 -3 8 20 34 62 68 37 30 83 70 103 88 135 128 209 178 334 225 40 15 77
19 192 19 92 0 146 4 153 11 18 18 -5 117 -41 183 -62 110 -120 181 -176 219
l-55 36 -157 3 c-142 3 -159 1 -186 -17z m118 -294 c18 -8 41 -22 52 -31 20
-16 20 -16 1 -31 -11 -8 -34 -14 -52 -14 -17 0 -42 -8 -55 -17 -13 -10 -50
-31 -82 -48 -41 -21 -84 -58 -150 -129 -152 -165 -194 -203 -250 -224 -29 -11
-64 -23 -78 -26 -15 -3 -30 -13 -33 -22 -4 -9 0 -27 9 -40 8 -13 15 -29 15
-35 0 -9 -34 -10 -128 -7 -92 3 -135 9 -157 21 -17 9 -46 23 -65 32 -118 54
-162 79 -190 111 -17 20 -30 43 -28 52 3 14 18 17 78 19 140 3 235 15 279 34
24 10 57 19 74 19 17 0 45 11 63 25 18 14 37 25 42 25 11 0 163 112 181 134
20 24 115 86 174 113 27 13 61 23 75 23 15 1 38 7 52 15 33 19 132 19 173 1z"/>
<path d="M806 2381 c-5 -7 -1 -20 8 -30 9 -10 16 -23 16 -29 0 -17 115 -132
133 -132 8 0 20 -7 27 -15 20 -24 171 -93 220 -101 25 -4 56 -15 70 -24 14 -9
46 -19 71 -22 26 -3 62 -16 84 -31 21 -14 42 -24 46 -21 10 6 49 -14 49 -25 0
-4 -33 -11 -74 -14 -50 -5 -90 -15 -127 -34 -61 -30 -114 -76 -135 -115 -12
-23 -12 -29 2 -42 18 -19 52 -13 104 16 19 11 59 22 90 25 30 3 63 10 73 15 9
5 83 13 165 19 81 6 166 17 190 25 23 8 56 14 73 14 36 0 108 35 116 56 8 22
-28 84 -60 100 -24 13 -33 13 -75 -1 -26 -9 -57 -23 -69 -31 -28 -18 -113 -18
-138 0 -17 12 -16 14 16 20 19 3 54 23 77 43 31 27 42 44 42 65 0 21 -9 34
-37 53 -21 14 -56 39 -77 55 -25 19 -50 30 -70 30 -17 -1 -49 -7 -71 -15 -28
-10 -83 -15 -180 -15 -77 0 -179 6 -226 13 -51 8 -100 22 -121 35 -19 12 -41
22 -48 22 -7 0 -28 11 -46 25 -18 14 -47 28 -64 32 -19 3 -35 14 -39 26 -6 15
-10 17 -15 8z"/>
<path d="M2079 1806 c-3 -3 -39 -6 -80 -7 -41 -1 -86 -8 -101 -15 -15 -8 -44
-14 -65 -15 -54 -1 -88 -13 -88 -29 0 -9 19 -19 53 -26 51 -12 81 -34 82 -62
0 -19 -60 -72 -90 -78 -14 -4 -43 -15 -66 -25 -22 -10 -56 -19 -75 -20 -66 -1
-218 -24 -229 -35 -33 -33 116 -103 267 -124 52 -7 130 -11 177 -8 73 5 92 10
133 37 26 17 61 39 78 49 16 9 53 39 82 66 54 49 103 124 103 156 0 20 -104
130 -122 130 -7 0 -22 3 -33 6 -11 3 -23 3 -26 0z"/>
<path d="M2248 1534 c-35 -31 -73 -63 -85 -71 -13 -9 -23 -21 -23 -28 0 -14
-63 -58 -99 -70 -13 -4 -38 -17 -57 -30 -19 -13 -39 -25 -45 -27 -5 -2 -11
-16 -12 -33 -2 -24 3 -31 26 -39 20 -7 39 -6 75 7 26 9 58 17 71 17 12 0 44
11 70 24 114 58 139 68 152 64 10 -3 4 -14 -21 -37 -19 -18 -48 -39 -64 -48
-16 -8 -39 -27 -52 -41 -13 -15 -26 -43 -29 -62 -3 -19 -13 -60 -22 -92 -10
-37 -13 -71 -9 -102 4 -28 12 -46 20 -46 7 0 26 19 42 42 40 58 83 94 176 147
15 9 61 35 102 58 41 24 77 47 81 53 7 12 -29 84 -68 132 -17 21 -37 38 -46
38 -9 0 -25 -7 -35 -15 -11 -8 -30 -15 -43 -15 -20 0 -22 3 -13 19 5 11 18 22
28 26 20 6 42 45 42 74 0 9 -13 38 -30 64 -19 30 -37 47 -49 47 -11 0 -49 -25
-83 -56z"/>
</g>
</svg>
