<?xml version="1.0" standalone="no"?>
<!DOCTYPE svg PUBLIC "-//W3C//DTD SVG 20010904//EN"
 "http://www.w3.org/TR/2001/REC-SVG-20010904/DTD/svg10.dtd">
<svg version="1.0" xmlns="http://www.w3.org/2000/svg"
 width="512" height="512" viewBox="0 0 512 512"
 preserveAspectRatio="xMidYMid meet">
<metadata>
Created by potrace 1.16, written by Peter Selinger 2001-2019
</metadata>
<g transform="translate(0.000000,512.000000) scale(0.100000,-0.100000)"
fill="#ffffff" stroke="none">
<path d="M2375 4924 c-44 -8 -125 -21 -180 -29 -104 -14 -425 -94 -473 -117
-24 -12 -27 -19 -27 -67 1 -40 6 -57 20 -67 10 -8 32 -14 47 -14 16 0 50 11
76 24 28 15 81 29 132 36 47 7 101 18 120 25 19 8 62 16 95 20 33 3 87 13 120
23 49 13 106 16 305 16 172 0 258 -3 290 -13 25 -7 94 -19 154 -26 59 -8 136
-23 170 -34 33 -11 81 -23 106 -27 25 -3 67 -17 94 -31 28 -14 57 -22 70 -19
25 6 73 54 76 76 1 8 2 22 1 32 -2 24 -114 73 -212 92 -46 9 -104 23 -129 31
-25 8 -67 17 -95 20 -87 11 -159 26 -200 41 -29 12 -95 17 -260 20 -170 3
-238 0 -300 -12z"/>
<path d="M2315 4385 c-16 -8 -43 -14 -60 -15 -41 0 -165 -29 -195 -45 -14 -7
-54 -21 -88 -30 -35 -9 -71 -20 -80 -25 -10 -5 -55 -26 -102 -46 -117 -51
-207 -101 -260 -143 -55 -45 -91 -71 -155 -115 -54 -37 -209 -191 -217 -216
-3 -8 -2 -25 3 -37 6 -17 16 -23 38 -23 23 0 47 18 117 86 49 47 101 97 116
111 38 35 131 99 208 145 75 44 275 142 311 153 13 4 53 20 89 35 37 16 95 31
135 35 39 4 87 14 109 21 21 8 51 14 65 14 15 0 35 6 45 13 19 14 25 62 10 77
-17 16 -59 19 -89 5z"/>
<path d="M2870 4370 c-11 -11 -20 -26 -20 -33 0 -7 6 -21 13 -31 9 -12 35 -20
82 -26 39 -5 86 -15 105 -23 19 -8 61 -20 93 -27 32 -6 83 -23 113 -36 30 -13
62 -24 71 -24 8 0 30 -9 48 -20 18 -11 51 -26 74 -35 23 -8 60 -27 84 -43 23
-16 69 -43 102 -60 67 -33 209 -149 327 -266 43 -42 86 -76 97 -76 11 0 27 7
35 16 9 8 16 25 16 36 0 11 -20 39 -44 62 -24 22 -49 51 -55 64 -7 12 -31 34
-54 49 -23 14 -63 45 -88 68 -25 24 -60 50 -77 59 -17 9 -60 38 -96 65 -36 28
-101 66 -143 86 -43 20 -109 52 -146 71 -38 19 -80 34 -93 34 -13 0 -50 10
-82 21 -77 29 -291 88 -319 89 -13 0 -32 -9 -43 -20z"/>
<path d="M2415 4109 c-22 -4 -85 -15 -140 -24 -55 -9 -113 -23 -130 -32 -16
-8 -54 -22 -84 -29 -29 -8 -65 -23 -80 -33 -14 -10 -53 -28 -86 -40 -33 -13
-64 -26 -70 -31 -5 -4 -50 -31 -98 -58 -49 -28 -116 -75 -149 -104 -97 -84
-187 -178 -232 -242 -104 -148 -135 -201 -157 -259 -12 -34 -30 -73 -39 -87
-29 -45 -50 -100 -50 -130 0 -16 -4 -40 -9 -53 -16 -40 -44 -255 -37 -281 3
-13 12 -26 20 -29 9 -4 41 17 81 53 36 33 74 60 85 60 11 0 34 -13 52 -28 47
-40 87 -64 97 -58 5 3 14 43 21 88 7 46 25 134 42 197 19 74 42 136 65 175 20
34 44 72 55 86 10 14 34 48 53 76 19 28 81 94 139 145 57 52 139 116 181 142
110 70 231 123 295 130 30 3 91 18 135 32 78 26 85 27 265 22 149 -4 199 -9
255 -26 38 -12 82 -21 98 -21 34 0 190 -63 226 -91 13 -11 43 -28 65 -39 68
-33 107 -60 204 -143 51 -44 101 -96 111 -116 11 -20 31 -47 46 -61 15 -14 37
-45 50 -70 13 -25 37 -62 54 -84 22 -28 31 -49 31 -76 0 -21 11 -62 24 -91 32
-70 60 -276 51 -374 -10 -99 -44 -253 -66 -297 -10 -21 -19 -43 -19 -51 0 -18
-113 -199 -158 -255 -64 -78 -125 -135 -211 -197 -80 -58 -134 -89 -231 -135
-25 -11 -52 -25 -60 -31 -8 -5 -19 -11 -25 -13 -5 -1 -61 -15 -123 -30 -62
-15 -153 -30 -202 -33 -69 -5 -93 -10 -106 -24 -16 -18 -14 -21 29 -61 25 -24
79 -75 120 -115 42 -39 85 -77 97 -83 32 -17 146 -3 202 26 26 13 57 24 69 24
29 0 203 74 270 115 31 19 76 44 100 55 24 11 69 41 99 66 30 25 65 54 77 64
12 10 33 26 48 36 14 9 32 29 40 44 8 15 29 42 47 61 69 72 145 182 203 296
34 65 73 154 87 198 30 93 54 226 63 340 3 48 0 126 -9 195 -17 133 -58 306
-86 360 -11 21 -28 60 -38 88 -21 55 -132 230 -191 300 -63 76 -154 162 -216
204 -33 23 -79 58 -102 80 -24 21 -48 38 -54 38 -6 0 -39 18 -72 40 -33 22
-71 43 -86 47 -14 3 -44 15 -66 26 -22 11 -66 26 -97 33 -32 8 -74 23 -95 34
-21 11 -46 20 -57 20 -11 0 -42 6 -70 14 -28 8 -81 20 -117 25 -76 13 -375 13
-434 0z"/>
<path d="M744 3945 c-45 -48 -152 -211 -204 -310 -23 -44 -45 -84 -49 -90 -4
-5 -22 -48 -40 -95 -17 -47 -38 -96 -45 -110 -8 -14 -21 -50 -29 -80 -9 -30
-23 -73 -31 -95 -8 -22 -15 -62 -16 -88 0 -26 -7 -80 -16 -120 -14 -59 -16
-108 -11 -277 8 -268 23 -415 48 -458 10 -18 19 -46 19 -61 0 -16 9 -40 21
-55 11 -14 29 -26 39 -26 21 0 140 101 154 131 6 13 2 39 -12 81 -12 35 -28
106 -36 158 -19 128 -20 345 -2 418 8 31 18 86 21 122 3 36 12 83 20 105 7 22
17 60 20 83 7 43 65 205 104 292 30 66 83 158 122 213 19 27 43 63 54 82 11
18 31 42 44 52 17 14 24 30 24 53 0 23 -7 38 -24 51 -13 10 -36 27 -51 39 -14
11 -41 20 -58 20 -24 0 -41 -9 -66 -35z"/>
<path d="M4415 3955 c-37 -17 -56 -33 -78 -65 -27 -39 -21 -72 19 -111 20 -18
44 -52 54 -75 10 -23 32 -57 49 -76 17 -20 37 -53 45 -75 7 -21 27 -61 44 -88
38 -62 98 -215 117 -300 9 -36 20 -77 26 -92 19 -49 49 -314 49 -429 0 -74 -8
-157 -25 -250 -13 -76 -32 -170 -41 -209 -10 -38 -31 -104 -47 -145 -52 -133
-138 -293 -205 -385 -36 -49 -73 -97 -83 -105 -9 -8 -20 -25 -23 -37 -4 -12
-2 -32 4 -43 15 -27 80 -88 103 -96 10 -3 29 -3 42 0 14 4 57 49 110 117 48
61 92 126 97 143 6 17 20 45 32 61 35 49 122 244 149 335 44 146 94 355 102
425 3 28 7 127 11 221 3 116 1 179 -6 200 -7 16 -18 67 -26 114 -8 47 -19 110
-24 141 -6 31 -17 73 -25 93 -8 20 -20 59 -26 88 -6 29 -33 91 -59 138 -26 47
-51 96 -55 110 -13 42 -86 171 -135 240 -26 36 -56 81 -68 100 -19 32 -68 71
-89 70 -4 -1 -21 -7 -38 -15z"/>
<path d="M892 3321 c-39 -40 -97 -232 -123 -406 -16 -111 -19 -174 -16 -302 4
-167 11 -193 46 -193 10 0 27 10 39 23 21 23 22 28 16 188 -7 158 -6 171 25
329 17 91 36 179 40 195 5 17 19 53 31 81 26 58 22 99 -10 107 -14 3 -29 -4
-48 -22z"/>
<path d="M4314 3322 c-21 -14 -36 -55 -30 -84 3 -16 15 -43 27 -59 22 -32 51
-141 74 -283 8 -50 15 -145 15 -211 0 -147 -22 -347 -44 -397 -9 -21 -16 -47
-16 -58 0 -12 -11 -42 -25 -68 -14 -26 -25 -63 -25 -83 0 -23 7 -42 19 -53 17
-16 23 -16 48 -4 22 11 34 29 56 93 26 74 34 105 65 250 22 101 35 284 29 421
-4 115 -10 152 -31 211 -14 40 -26 84 -26 98 0 29 -53 177 -75 212 -15 23 -40
29 -61 15z"/>
<path d="M2465 3174 c-38 -8 -81 -23 -95 -33 -15 -10 -49 -30 -76 -44 -56 -28
-138 -116 -173 -184 -12 -24 -30 -80 -41 -126 -17 -71 -18 -95 -10 -163 6 -43
13 -88 16 -99 4 -11 31 -57 60 -101 54 -81 140 -166 201 -197 53 -28 222 -67
287 -67 34 0 86 7 116 16 30 8 79 21 108 29 35 9 77 32 123 67 50 37 86 76
124 133 34 50 60 102 70 140 8 32 15 99 15 147 0 66 -6 102 -23 152 -13 35
-47 96 -76 135 -44 59 -67 79 -147 127 -52 31 -115 62 -141 70 -59 18 -243 17
-338 -2z m330 -148 c69 -21 153 -98 199 -182 33 -60 37 -73 39 -153 2 -86 1
-89 -43 -175 -39 -75 -53 -94 -105 -130 -33 -24 -78 -52 -100 -63 -37 -19 -50
-20 -165 -12 -69 4 -142 13 -163 19 -22 7 -64 36 -103 72 -47 45 -74 80 -99
133 -26 53 -35 85 -35 123 0 30 12 87 28 135 22 65 40 98 78 141 27 31 68 66
92 77 24 12 66 25 95 30 72 11 222 3 282 -15z"/>
<path d="M1205 2381 c-16 -10 -43 -33 -58 -49 -15 -17 -36 -33 -46 -37 -10 -3
-24 -17 -32 -32 -8 -14 -27 -34 -44 -44 -28 -17 -95 -78 -279 -252 -39 -37
-78 -69 -87 -72 -9 -3 -30 -23 -48 -45 -18 -22 -85 -87 -149 -143 -64 -57
-140 -126 -168 -153 -84 -82 -210 -196 -228 -206 -9 -5 -16 -21 -16 -35 0 -29
-3 -26 271 -283 315 -296 393 -369 428 -395 19 -14 122 -109 229 -213 107
-103 204 -195 215 -204 12 -10 38 -18 57 -17 30 0 48 12 134 92 55 51 170 159
255 241 86 81 176 164 201 184 61 49 145 126 270 247 58 57 119 110 136 118
17 9 39 29 49 44 10 15 47 54 82 86 44 41 63 66 63 83 0 14 -13 35 -32 51 -17
16 -64 58 -102 94 -39 36 -96 88 -126 114 -30 27 -73 67 -96 89 -69 71 -377
352 -429 393 -27 22 -78 69 -112 104 -134 138 -272 259 -297 259 -6 0 -24 -9
-41 -19z m105 -183 c41 -48 139 -145 182 -180 25 -20 48 -46 51 -57 3 -12 -3
-27 -14 -37 -19 -17 -23 -16 -84 5 -41 15 -75 21 -91 17 -38 -10 -74 -50 -74
-84 0 -17 9 -37 24 -51 17 -16 37 -23 68 -23 23 -1 58 7 77 17 24 12 63 18
130 20 88 3 99 1 136 -23 52 -34 117 -104 106 -115 -4 -4 -33 -12 -62 -16 -30
-4 -89 -24 -133 -45 -43 -21 -89 -41 -102 -46 -30 -12 -57 -65 -50 -96 7 -26
59 -64 88 -64 22 0 88 57 88 76 0 7 12 28 28 45 20 22 46 36 97 50 38 10 86
19 106 19 23 0 51 -10 75 -26 48 -33 272 -242 285 -266 6 -11 5 -27 -3 -47 -7
-17 -86 -99 -176 -183 -90 -84 -178 -163 -195 -176 -18 -12 -93 -80 -167 -150
-218 -205 -419 -386 -438 -393 -9 -4 -26 -3 -37 1 -11 5 -71 58 -133 118 -79
78 -110 115 -106 126 5 14 26 22 105 40 19 4 35 -1 55 -17 20 -15 41 -22 71
-21 23 0 53 8 67 18 20 12 26 25 26 51 0 24 -9 45 -29 67 -23 26 -36 32 -66
31 -21 -1 -46 -9 -58 -21 -16 -14 -41 -21 -94 -24 -50 -4 -82 -12 -108 -28
-29 -18 -42 -21 -67 -14 -17 5 -40 22 -52 37 -20 27 -20 28 -2 60 25 44 129
132 193 163 51 25 59 25 310 29 237 4 264 3 331 -16 45 -12 85 -18 103 -14 16
4 34 16 40 27 15 28 4 99 -17 115 -10 7 -34 13 -53 13 -20 0 -51 -9 -69 -20
-31 -19 -50 -20 -340 -20 -277 0 -311 -2 -347 -19 -22 -10 -82 -60 -133 -110
-83 -83 -96 -92 -125 -89 -26 2 -36 11 -55 46 l-24 43 46 42 c26 23 94 87 152
142 57 55 115 104 127 108 19 8 133 9 365 4 63 -2 76 1 89 18 19 27 10 85 -18
108 -12 9 -36 17 -54 17 -18 0 -53 -9 -78 -20 -37 -17 -69 -20 -181 -22 l-136
-1 -52 -45 c-29 -24 -64 -51 -78 -60 -14 -8 -55 -45 -91 -81 -91 -91 -151
-141 -169 -141 -25 0 -78 37 -85 61 -4 12 -2 31 4 43 7 12 26 31 44 43 18 13
66 57 106 98 41 41 78 75 84 75 5 0 49 39 98 86 64 63 108 97 161 123 72 36
73 36 76 79 3 36 -1 47 -27 73 -22 22 -38 29 -58 27 -20 -2 -37 -18 -69 -66
-23 -35 -57 -79 -76 -99 -76 -81 -165 -163 -200 -185 -20 -13 -44 -36 -53 -51
-20 -34 -169 -147 -193 -147 -10 0 -30 9 -45 19 -31 20 -97 107 -97 126 0 11
46 54 254 239 87 76 232 213 306 287 30 31 63 60 73 66 10 5 79 68 153 139 75
71 152 139 172 151 21 13 50 23 65 23 16 0 36 -9 47 -22z"/>
<path d="M3972 1607 c-135 -129 -149 -141 -188 -170 -22 -15 -61 -43 -88 -63
-27 -20 -63 -41 -80 -46 -17 -6 -40 -18 -51 -28 -41 -34 -121 -78 -155 -85
-19 -4 -44 -13 -56 -20 -12 -8 -48 -21 -80 -31 -32 -9 -80 -27 -106 -40 -26
-13 -62 -24 -80 -24 -18 0 -73 -9 -122 -19 -65 -13 -94 -24 -107 -39 -10 -13
-15 -31 -12 -43 3 -11 17 -25 32 -31 20 -8 41 -5 91 11 36 11 90 23 120 27 30
3 67 13 82 20 15 8 53 21 85 29 94 24 204 65 237 89 17 12 74 44 128 70 53 27
120 68 150 93 29 24 68 50 86 58 41 18 240 221 249 254 4 18 0 29 -17 43 -12
10 -27 18 -32 18 -5 0 -44 -33 -86 -73z"/>
<path d="M3416 705 c-25 -13 -74 -29 -108 -34 -33 -6 -82 -17 -107 -25 -25 -8
-122 -24 -216 -35 -93 -12 -205 -26 -247 -33 -61 -9 -111 -9 -230 1 -84 7
-161 17 -171 23 -10 5 -55 12 -101 15 l-84 6 -36 -39 c-20 -21 -36 -47 -36
-56 0 -9 6 -23 14 -31 16 -16 105 -36 186 -42 30 -2 115 -10 188 -19 108 -13
159 -14 270 -6 290 21 344 30 687 115 39 9 87 24 107 32 21 9 41 25 44 37 10
30 7 71 -6 95 -8 17 -20 21 -59 21 -32 0 -64 -8 -95 -25z"/>
</g>
</svg>
