<?xml version="1.0" standalone="no"?>
<!DOCTYPE svg PUBLIC "-//W3C//DTD SVG 20010904//EN"
 "http://www.w3.org/TR/2001/REC-SVG-20010904/DTD/svg10.dtd">
<svg version="1.0" xmlns="http://www.w3.org/2000/svg"
 width="768" height="768" viewBox="0 0 768 768"
 preserveAspectRatio="xMidYMid meet">
<metadata>
Created by potrace 1.16, written by Peter Selinger 2001-2019
</metadata>
<g transform="translate(0.000000,768.000000) scale(0.100000,-0.100000)"
fill="#ffffff" stroke="none">
<path d="M2265 6490 c-3 -5 -14 -10 -24 -10 -10 0 -39 -22 -65 -50 -43 -46
-46 -52 -46 -105 0 -30 -5 -55 -10 -55 -7 0 -7 -6 -1 -17 5 -10 12 -25 16 -33
22 -54 80 -116 119 -126 14 -3 26 -10 26 -15 0 -12 97 -12 104 0 3 4 19 11 36
14 30 7 45 16 78 49 45 45 47 50 46 151 l-2 99 -43 44 c-24 24 -49 44 -56 44
-7 0 -13 5 -13 10 0 6 -33 10 -79 10 -44 0 -83 -4 -86 -10z"/>
<path d="M1608 6054 c-10 -3 -18 -9 -18 -12 0 -4 -17 -16 -37 -27 -43 -22
-102 -78 -120 -113 -18 -34 -17 -192 1 -227 8 -16 18 -31 23 -34 4 -3 13 -15
19 -25 6 -11 19 -24 29 -30 10 -6 30 -22 43 -36 23 -24 30 -25 132 -25 102 0
109 1 132 25 13 14 33 30 43 36 10 6 23 19 29 29 6 10 22 29 35 42 15 15 25
38 29 68 2 25 9 48 13 51 12 7 11 74 -1 74 -5 0 -10 6 -10 13 0 8 -9 22 -20
32 -11 10 -20 24 -20 32 0 7 -4 13 -10 13 -5 0 -10 7 -10 15 0 8 -6 15 -14 15
-8 0 -16 7 -20 15 -3 8 -11 15 -18 15 -6 0 -24 12 -40 26 -23 23 -37 27 -100
30 -40 2 -81 1 -90 -2z"/>
<path d="M2098 5553 c-16 -8 -28 -18 -28 -23 0 -5 -13 -11 -30 -15 -16 -4 -30
-11 -30 -16 0 -5 -7 -9 -15 -9 -8 0 -15 -5 -15 -10 0 -6 -18 -27 -40 -49 -22
-21 -40 -45 -40 -52 0 -8 -14 -40 -30 -72 -30 -60 -30 -58 1 -117 5 -8 20 -39
35 -69 21 -44 25 -64 22 -109 -3 -29 -10 -57 -16 -61 -6 -3 -14 -19 -17 -34
-4 -15 -11 -27 -16 -27 -5 0 -9 -8 -9 -19 0 -25 -45 -71 -70 -71 -30 0 -60 35
-60 72 0 17 -6 38 -14 47 -8 9 -42 46 -77 84 -58 63 -65 67 -106 67 -23 0 -43
5 -43 10 0 6 -28 10 -64 10 -36 0 -68 -4 -71 -10 -3 -5 -18 -10 -32 -10 -17 0
-41 -15 -73 -48 -26 -27 -51 -59 -55 -73 -4 -13 -12 -27 -17 -30 -6 -4 -22
-31 -37 -60 l-27 -54 -62 -6 c-49 -5 -67 -11 -85 -31 -15 -16 -40 -29 -65 -33
-23 -4 -42 -11 -42 -16 0 -5 -6 -9 -13 -9 -14 0 -77 -60 -77 -73 0 -5 -12 -19
-27 -33 -24 -22 -28 -35 -31 -95 -2 -38 -8 -69 -13 -69 -5 0 -9 -27 -9 -60 0
-33 4 -60 9 -60 4 0 11 -19 14 -41 3 -23 10 -45 15 -48 6 -3 14 -19 17 -34 4
-15 11 -27 16 -27 5 0 9 -7 9 -15 0 -8 4 -15 10 -15 5 0 33 -24 62 -53 43 -44
61 -55 98 -61 24 -4 49 -11 55 -15 5 -5 62 -11 126 -13 100 -4 118 -7 136 -25
12 -12 24 -31 28 -44 4 -13 14 -29 22 -37 9 -9 13 -31 11 -61 -3 -44 -2 -46
27 -49 17 -2 35 -7 40 -12 6 -4 23 -10 38 -14 16 -4 39 -18 52 -32 15 -16 39
-28 64 -31 23 -3 41 -10 41 -14 0 -5 8 -9 18 -9 9 0 30 -7 46 -15 20 -10 59
-15 131 -15 72 0 111 5 131 15 16 8 37 15 47 15 9 0 17 5 17 10 0 6 11 10 25
10 13 0 39 13 57 29 18 16 48 32 66 36 49 10 82 30 97 57 6 14 15 41 19 60 3
19 16 44 27 54 12 10 29 36 39 56 10 21 21 65 25 98 4 33 11 60 16 60 5 0 9
41 9 90 0 53 -4 90 -10 90 -16 0 -11 56 8 89 9 18 28 34 42 38 27 7 28 8 89
60 24 21 50 52 58 68 7 17 17 37 22 45 4 8 13 25 19 37 14 27 16 233 3 233 -5
0 -12 14 -16 30 -4 17 -10 30 -14 30 -3 0 -15 17 -26 38 -22 42 -49 72 -80 87
-13 7 -21 22 -23 44 -2 20 2 37 10 42 9 6 13 32 12 90 -1 45 -6 84 -10 88 -12
8 -31 40 -45 71 -13 32 -59 80 -76 80 -14 0 -64 29 -74 43 -13 18 -63 37 -93
36 -17 -1 -43 -8 -58 -16z"/>
<path d="M4048 5403 c-16 -8 -28 -18 -28 -22 0 -5 -19 -11 -42 -15 -23 -4 -45
-10 -48 -14 -7 -10 -68 -52 -75 -52 -4 0 -14 -8 -23 -17 -15 -15 -17 -60 -20
-445 -2 -379 -1 -428 13 -428 8 0 15 -4 15 -10 0 -7 457 -10 1350 -10 893 0
1350 3 1350 10 0 6 20 10 45 10 25 0 45 -4 45 -10 0 -6 33 -10 78 -10 69 0 81
3 100 23 22 23 22 29 22 323 0 219 -3 307 -12 327 -7 15 -19 27 -26 27 -7 0
-16 8 -19 18 -9 22 -118 132 -132 132 -6 0 -11 6 -11 13 0 14 -35 47 -50 47
-6 0 -14 8 -17 18 -4 9 -14 24 -22 32 -15 16 -46 35 -71 45 -8 4 -23 11 -32
16 -23 12 -55 12 -63 -1 -3 -5 -17 -10 -30 -10 -13 0 -27 5 -30 10 -4 6 -80
10 -195 10 -115 0 -191 -4 -195 -10 -4 -7 -308 -10 -881 -10 -576 0 -874 3
-874 10 0 15 -91 10 -122 -7z m1732 -438 c27 -27 50 -55 50 -62 0 -7 5 -13 10
-13 6 0 10 -32 10 -75 0 -41 -4 -75 -9 -75 -5 0 -11 -14 -15 -30 -4 -24 -12
-32 -36 -36 -16 -4 -30 -10 -30 -14 0 -4 -12 -11 -27 -15 -15 -3 -31 -12 -35
-18 -5 -8 -146 -11 -509 -12 -386 0 -503 3 -506 12 -3 7 -19 15 -38 19 -18 3
-43 16 -54 28 -30 32 -60 94 -67 137 -5 29 -1 44 17 70 13 19 27 36 30 39 4 3
10 19 13 37 4 17 13 36 19 41 7 6 26 12 42 15 17 2 267 4 557 3 l527 -1 51
-50z m808 31 c8 -8 16 -34 19 -57 5 -40 2 -47 -34 -82 -35 -36 -42 -39 -82
-34 -23 3 -50 12 -58 20 -21 21 -27 105 -11 137 7 13 24 27 38 32 35 10 112 1
128 -16z"/>
<path d="M3407 5262 c-10 -10 -17 -24 -17 -30 0 -7 -4 -12 -10 -12 -7 0 -10
-173 -10 -498 l0 -499 23 -21 c20 -18 35 -22 96 -22 56 0 76 4 92 19 19 18 20
30 17 535 -3 499 -4 518 -22 532 -13 9 -45 14 -86 14 -52 0 -71 -4 -83 -18z"/>
<path d="M3124 5256 c-11 -6 -36 -26 -54 -45 l-34 -33 1 -445 1 -445 43 -44
c24 -24 49 -44 56 -44 7 0 13 -4 13 -10 0 -16 48 -11 70 7 15 13 20 30 20 70
0 29 5 53 10 53 6 0 10 20 10 45 0 25 -4 45 -10 45 -7 0 -10 144 -10 413 0
401 -1 413 -20 430 -23 19 -65 21 -96 3z"/>
<path d="M3990 4300 c0 -5 -39 -11 -87 -12 l-88 -3 -3 -37 c-3 -37 1 -43 54
-88 30 -25 83 -50 104 -50 11 0 20 -4 20 -10 0 -5 5 -10 11 -10 6 0 22 -9 36
-20 25 -20 41 -20 1324 -20 1148 0 1299 2 1299 15 0 8 4 15 9 15 5 0 12 12 15
26 4 14 19 38 34 52 16 15 37 44 47 65 11 20 24 37 28 37 5 0 4 7 -3 15 -10
12 -38 15 -131 15 -73 0 -119 4 -119 10 0 6 -9 10 -19 10 -11 0 -23 -4 -26
-10 -4 -7 -403 -10 -1166 -10 -766 0 -1159 3 -1159 10 0 6 -37 10 -90 10 -51
0 -90 -4 -90 -10z"/>
<path d="M5298 3893 c-10 -2 -18 -9 -18 -14 0 -5 -13 -9 -30 -9 -16 0 -30 5
-30 10 0 6 -57 10 -150 10 -93 0 -150 -4 -150 -10 0 -6 -98 -10 -274 -10 -173
0 -277 4 -281 10 -8 13 -165 13 -165 0 0 -6 -136 -11 -372 -12 l-373 -3 4
-130 c2 -71 7 -131 12 -133 5 -2 9 -15 9 -29 0 -15 13 -38 34 -59 l34 -34 450
0 c290 0 453 -4 457 -10 3 -5 17 -10 30 -10 28 0 85 -54 85 -81 0 -10 4 -19 9
-19 4 0 11 -18 14 -41 3 -25 15 -49 31 -64 14 -13 26 -33 26 -43 0 -11 9 -31
20 -45 11 -14 20 -28 20 -32 0 -3 15 -22 34 -40 l33 -35 202 0 c127 0 201 -4
201 -10 0 -5 7 -10 15 -10 8 0 15 5 15 10 0 6 20 10 45 10 25 0 45 -4 45 -10
0 -5 9 -10 19 -10 11 0 23 5 26 10 8 13 159 13 183 1 9 -6 30 -12 45 -16 21
-4 29 -13 34 -35 3 -17 9 -30 13 -30 5 0 11 -27 15 -60 4 -33 10 -60 14 -60 5
0 11 -73 14 -162 3 -88 10 -164 15 -167 5 -3 12 -24 15 -45 4 -22 11 -42 17
-46 6 -3 13 -44 16 -91 3 -49 14 -101 25 -126 10 -23 23 -44 29 -48 5 -3 10
-19 10 -36 0 -16 5 -29 10 -29 6 0 10 -22 10 -49 0 -37 9 -67 34 -116 25 -49
43 -72 71 -86 26 -14 46 -18 71 -13 19 3 34 10 34 14 0 4 25 10 57 13 31 3 59
10 62 15 3 5 17 13 31 17 13 4 30 14 38 21 7 8 22 14 33 14 10 0 19 5 19 10 0
6 9 10 20 10 11 0 37 9 57 20 21 11 46 20 55 20 10 0 18 5 18 10 0 6 11 10 25
10 13 0 40 13 58 30 19 17 40 30 45 30 6 0 27 14 45 30 19 17 39 30 43 30 5 0
19 11 32 24 14 15 22 36 22 59 0 19 -7 40 -15 47 -8 7 -17 28 -21 48 -8 40
-27 82 -44 92 -6 4 -14 26 -17 49 -3 22 -9 41 -14 41 -4 0 -10 14 -14 30 -4
17 -10 30 -14 30 -10 0 -40 61 -47 97 -3 17 -17 42 -30 54 -13 12 -27 37 -30
56 -3 18 -10 33 -14 33 -5 0 -11 14 -15 30 -4 17 -10 30 -14 30 -9 0 -39 59
-47 93 -3 15 -9 27 -13 27 -4 0 -18 20 -30 45 -12 25 -27 45 -32 45 -5 0 -9 6
-9 14 0 7 -7 19 -15 26 -8 7 -17 27 -21 46 -3 19 -9 34 -13 34 -3 0 -15 17
-26 37 -14 25 -20 56 -20 100 0 38 5 67 12 71 6 4 15 21 19 37 4 17 14 41 23
55 9 13 34 42 55 63 40 38 60 67 72 100 3 9 10 17 15 17 5 0 9 6 9 13 0 8 9
22 20 32 11 10 20 24 20 32 0 7 4 13 9 13 5 0 16 13 24 30 12 24 13 35 4 55
-12 24 -15 25 -114 25 -62 0 -103 -4 -103 -10 0 -16 -66 -12 -80 5 -7 8 -22
15 -34 15 -12 0 -30 -9 -40 -21 -14 -17 -24 -20 -54 -14 -20 4 -41 11 -46 16
-13 12 -76 12 -76 -1 0 -13 -33 -13 -46 0 -7 7 -95 12 -236 13 -199 2 -228 4
-245 20 -20 17 -25 18 -55 10z m-160 -131 c33 -33 52 -72 59 -117 3 -25 10
-45 14 -45 13 0 11 -184 -2 -197 -5 -5 -9 -34 -7 -63 2 -35 8 -55 18 -60 8 -4
25 -12 38 -19 14 -7 22 -7 22 -1 0 6 41 10 104 10 80 0 106 3 116 15 7 8 21
15 31 15 12 0 21 -9 24 -27 4 -16 10 -36 16 -45 6 -11 6 -18 0 -18 -5 0 -11
-15 -13 -32 l-3 -33 -313 0 c-216 0 -315 3 -320 11 -4 6 -27 14 -52 18 -46 7
-80 29 -80 53 0 7 -5 13 -12 13 -9 0 -9 3 0 12 14 14 16 108 2 108 -6 0 -10
27 -10 60 0 33 4 60 10 60 14 0 13 123 -2 138 -9 9 -9 15 0 24 7 7 12 28 12
48 0 19 5 42 10 50 7 11 33 16 95 19 47 1 85 7 85 12 0 5 32 9 70 9 54 0 74
-4 88 -18z"/>
<path d="M2472 3718 c-18 -18 -41 -41 -52 -50 -20 -18 -20 -33 -20 -998 0
-862 2 -981 15 -986 8 -4 15 -12 15 -18 0 -7 13 -24 28 -39 19 -18 39 -27 60
-27 18 0 32 4 32 9 0 5 14 12 30 16 17 4 30 10 30 15 0 4 12 11 27 15 15 3 37
17 50 31 12 13 36 27 52 30 16 4 42 19 57 35 15 16 32 29 37 29 5 0 23 14 40
32 l32 31 1 815 c1 492 5 817 11 821 5 3 12 14 16 24 3 9 13 17 22 17 8 0 15
4 15 9 0 5 64 11 143 13 172 4 177 6 177 96 0 50 -4 62 -26 83 l-26 24 -366 3
-367 3 -33 -33z m266 -316 c16 -16 22 -34 22 -64 0 -32 -6 -49 -27 -70 -18
-19 -37 -28 -59 -28 -18 0 -45 8 -61 17 -37 21 -68 72 -53 87 5 5 10 17 10 25
0 8 10 26 23 39 19 21 29 23 73 20 34 -3 57 -11 72 -26z"/>
</g>
</svg>
